<svg width="32" height="32" viewBox="0 0 32 32" fill="none" xmlns="http://www.w3.org/2000/svg">
<g clip-path="url(#clip0_25_5)">
<path d="M0 8C0 3.58172 3.58172 0 8 0H24C28.4182 0 32 3.58172 32 8V24C32 28.4182 28.4182 32 24 32H8C3.58172 32 0 28.4182 0 24V8Z" fill="url(#paint0_linear_25_5)"/>
<path d="M14.6245 18.3334C14.565 18.1026 14.4448 17.8921 14.2763 17.7236C14.1078 17.5551 13.8973 17.4349 13.6665 17.3754L9.57655 16.3206C9.50679 16.3009 9.44535 16.2588 9.40159 16.201C9.35791 16.1431 9.33423 16.0726 9.33423 16C9.33423 15.9274 9.35791 15.8569 9.40159 15.799C9.44535 15.7412 9.50679 15.6991 9.57655 15.6794L13.6665 14.624C13.8972 14.5646 14.1077 14.4444 14.2761 14.276C14.4446 14.1077 14.5649 13.8973 14.6245 13.6666L15.6792 9.57664C15.6988 9.50664 15.7408 9.44488 15.7988 9.40096C15.8567 9.35696 15.9275 9.3332 16.0002 9.3332C16.0729 9.3332 16.1437 9.35696 16.2017 9.40096C16.2596 9.44488 16.3016 9.50664 16.3212 9.57664L17.3752 13.6666C17.4347 13.8974 17.555 14.1079 17.7235 14.2764C17.892 14.4449 18.1025 14.5651 18.3332 14.6246L22.4232 15.6786C22.4936 15.6981 22.5556 15.74 22.5997 15.7981C22.644 15.8561 22.6679 15.927 22.6679 16C22.6679 16.073 22.644 16.1439 22.5997 16.2019C22.5556 16.26 22.4936 16.3019 22.4232 16.3214L18.3332 17.3754C18.1025 17.4349 17.892 17.5551 17.7235 17.7236C17.555 17.8921 17.4347 18.1026 17.3752 18.3334L16.3205 22.4234C16.3009 22.4934 16.2589 22.5551 16.201 22.599C16.143 22.643 16.0723 22.6668 15.9996 22.6668C15.9268 22.6668 15.8561 22.643 15.7981 22.599C15.7401 22.5551 15.6981 22.4934 15.6785 22.4234L14.6245 18.3334Z" fill="white"/>
<path d="M21.3334 10V12.6666" stroke="white" stroke-width="0.8" stroke-linecap="round" stroke-linejoin="round"/>
<path d="M22.6666 11.3334H20" stroke="white" stroke-width="0.8" stroke-linecap="round" stroke-linejoin="round"/>
<path d="M10.6666 19.4666V21.0666" stroke="white" stroke-width="0.8" stroke-linecap="round" stroke-linejoin="round"/>
<path d="M11.4666 20.2666H9.86658" stroke="white" stroke-width="0.8" stroke-linecap="round" stroke-linejoin="round"/>
</g>
<defs>
<linearGradient id="paint0_linear_25_5" x1="0" y1="0" x2="32" y2="32" gradientUnits="userSpaceOnUse">
<stop stop-color="#192CFF"/>
<stop offset="1" stop-color="#E406F8"/>
</linearGradient>
<clipPath id="clip0_25_5">
<rect width="32" height="32" fill="white"/>
</clipPath>
</defs>
</svg>
